<svg height="512" viewBox="0 0 512 512" width="512" xmlns="http://www.w3.org/2000/svg"><path d="m24 24h96v464h-96z" fill="#348fd9"/><path d="m360 24h96v464h-96z" fill="#348fd9"/><path d="m360 440h96v48h-96z" fill="#4d5e78"/><path d="m120 24h32v416h-32z" fill="#3086cd"/><path d="m456 24h32v416h-32z" fill="#3086cd"/><path d="m152 24h304v64h-304z" fill="#4db7e5"/><path d="m120 440h32v48h-32z" fill="#44546c"/><path d="m456 440h32v48h-32z" fill="#44546c"/><path d="m280 48h16v16h-16z" fill="#d0d24b"/><path d="m312 48h16v16h-16z" fill="#f35244"/><path d="m24 440h96v48h-96z" fill="#4d5e78"/><path d="m456 168-96-56v-24h96z" fill="#3086cd"/><rect fill="#fec9a3" height="88" rx="32" width="64" x="224" y="120"/><path d="m216 312h80v-48h32v-24a32 32 0 0 0 -32-32h-80a32 32 0 0 0 -32 32v24h32z" fill="#f35244"/><path d="m216 312h80v176h-80z" fill="#92563a"/><path d="m216 456h40a0 0 0 0 1 0 0v32a0 0 0 0 1 0 0h-40a16 16 0 0 1 -16-16 16 16 0 0 1 16-16z" fill="#4d5e78"/><path d="m256 456h40v32h-40z" fill="#4d5e78"/><path d="m288 176h-32l-24-24h-8a16 16 0 0 1 -16-16 16 16 0 0 1 16-16h32a32 32 0 0 1 32 32z" fill="#92563a"/><path d="m184 264h32v80h-32z" fill="#fec9a3"/><path d="m296 264h32v80h-32z" fill="#fec9a3"/><path d="m248 336h16v120h-16z" fill="#82482d"/><path d="m208 240h16v72h-16z" fill="#de4132"/><path d="m288 240h16v72h-16z" fill="#de4132"/><path d="m248 456h16v32h-16z" fill="#44546c"/></svg>